<svg width="12" height="10" viewBox="0 0 12 10" fill="none" xmlns="http://www.w3.org/2000/svg">
<path d="M11.2071 1.56696C10.7881 1.7532 10.3458 1.86959 9.88023 1.93943C10.3458 1.66008 10.7183 1.21778 10.8812 0.682362C10.4389 0.938432 9.95006 1.12466 9.41465 1.24106C8.99562 0.798757 8.39037 0.519409 7.73856 0.519409C6.48149 0.519409 5.45721 1.54369 5.45721 2.80075C5.45721 2.98698 5.48049 3.14994 5.52705 3.31289C3.64145 3.21977 1.94208 2.31189 0.801411 0.915153C0.615178 1.26434 0.498783 1.6368 0.498783 2.05582C0.498783 2.84731 0.894527 3.54568 1.52306 3.9647C1.1506 3.94142 0.801411 3.84831 0.475504 3.68536V3.70863C0.475504 4.82603 1.26699 5.75719 2.31455 5.9667C2.12831 6.01326 1.9188 6.03654 1.70929 6.03654C1.56962 6.03654 1.40666 6.01326 1.26699 5.98998C1.56962 6.89786 2.40766 7.57295 3.40866 7.57295C2.61717 8.17821 1.63945 8.55067 0.56862 8.55067C0.382388 8.55067 0.196156 8.55067 0.0332031 8.52739C1.05748 9.1792 2.24471 9.55167 3.54833 9.55167C7.76184 9.55167 10.0665 6.05981 10.0665 3.03354C10.0665 2.94043 10.0665 2.82403 10.0665 2.73092C10.5088 2.42829 10.9045 2.03255 11.2071 1.56696Z" fill="black"/>
</svg>
